<svg xmlns="http://www.w3.org/2000/svg" xml:space="preserve" style="fill-rule:evenodd;clip-rule:evenodd;stroke-linecap:round;stroke-linejoin:round" viewBox="0 0 50 50"><path d="m29.065 44.271-4.867-7.316 13.588-6.96c6.654-3.409 8.671-11.253 4.502-17.52S29.346 3.893 22.691 7.302l-11.042 5.656c-3.494 1.79-4.552 5.907-2.365 9.198 2.189 3.289 6.795 4.504 10.289 2.715l9.786-5.014" style="fill:none;fill-rule:nonzero;stroke:#fff;stroke-width:5.01px"/><path d="m27.763 44.271-4.867-7.316 13.587-6.96c6.654-3.409 8.671-11.253 4.502-17.52S28.043 3.893 21.388 7.302l-11.042 5.656c-3.494 1.79-4.552 5.907-2.365 9.198 2.189 3.289 6.795 4.504 10.289 2.715l9.786-5.014" style="fill:none;fill-rule:nonzero;stroke:#000;stroke-width:5.01px"/></svg>