<svg xmlns="http://www.w3.org/2000/svg" xml:space="preserve" style="fill-rule:evenodd;clip-rule:evenodd;stroke-linejoin:round;stroke-miterlimit:2" viewBox="0 0 12 12"><path d="M2.69 4.853h7.287v5.225H2.69z" style="fill:#fff"/><path d="M7.5 6.75h-.75V6H6v.75c0 .072 0 .264.47.387.552.098.975.555 1.03 1.113h.75V9H9v-.75c0-.145-.211-.319-.47-.388-.896-.235-1.03-.797-1.03-1.112M6.28 7.862c-.896-.235-1.03-.797-1.03-1.112H4.5V6h-.75v3h.75v-.75H6V9h.75v-.75c0-.145-.211-.319-.47-.388M9 1.5H1.5V9c0 .823.677 1.5 1.5 1.5h6.06c.79 0 1.44-.65 1.44-1.44V3c0-.823-.677-1.5-1.5-1.5m.75 5.25H9V6h-.75v.75c0 .072 0 .264.47.387.552.098.975.555 1.03 1.113V9c0 .411-.339.75-.75.75h-.75A.754.754 0 0 1 7.5 9c0 .411-.339.75-.75.75H6A.754.754 0 0 1 5.25 9c0 .411-.339.75-.75.75h-.75A.754.754 0 0 1 3 9V6c0-.411.339-.75.75-.75h.75c.411 0 .75.339.75.75 0-.411.339-.75.75-.75h.75c.411 0 .75.339.75.75 0-.411.339-.75.75-.75H9c.411 0 .75.339.75.75z" style="fill:#7e57c2;fill-rule:nonzero"/></svg>