<svg xmlns="http://www.w3.org/2000/svg" xml:space="preserve" style="fill-rule:evenodd;clip-rule:evenodd;stroke-linejoin:round;stroke-miterlimit:2" viewBox="0 0 12 12"><path d="M8.328 2.891v2.234c0 .604-.49 1.094-1.094 1.094H5.046c-.604 0-1.094-.49-1.094-1.094V2.891c0-.604.49-1.094 1.094-1.094h2.188c.604 0 1.094.49 1.094 1.094" style="fill:#009cd9"/><path d="M10.375 6.781v2.234c0 .604-.49 1.094-1.094 1.094H7.093c-.604 0-1.094-.49-1.094-1.094V6.781c0-.604.49-1.094 1.094-1.094h2.188c.604 0 1.094.49 1.094 1.094" style="fill:#ff374d"/><path d="M6.003 7.094v2.234c0 .604-.49 1.094-1.094 1.094H2.721c-.604 0-1.094-.49-1.094-1.094V7.094C1.627 6.49 2.117 6 2.721 6h2.188c.604 0 1.094.49 1.094 1.094" style="fill:#fcff88"/><path d="M8.81.465c.689 0 1.269.148 1.52.283.489.262.772.583.944.98.158.361.235.897.236 1.286l.009 5.565c.001.507-.049 1.129-.149 1.43-.198.601-.573.973-1.031 1.231-.407.229-1.306.296-1.91.294l-5.525-.022c-.829-.004-1.416-.267-1.813-.693-.396-.425-.606-1.03-.606-1.742l.014-6.101c0-.414.098-.913.237-1.218.172-.379.375-.604.683-.837C1.792.636 2.434.486 3.04.486zM5.98 2.176a1.65 1.65 0 0 0-1.607 1.645c.01.722.817 1.74 1.442 2.265.06.05.077.054.165.09.031.013.099-.024.163-.067.18-.122.497-.473.824-.869a4 4 0 0 0 .516-.841c.205-.445.13-.8.117-.944a2 2 0 0 0-.495-.846 1.68 1.68 0 0 0-1.125-.432m2.086 3.961a5.1 5.1 0 0 0-1.622.305c-.075.029-.13.05-.187.085-.029.018-.055.067-.053.146.008.216.145.639.312 1.135.192.567.533 1.135.922 1.37.38.228.838.29 1.265.171a1.7 1.7 0 0 0 .981-.773c.493-.909.095-1.774-.56-2.208-.223-.148-.566-.223-.945-.23zm-4.216.019q-.189 0-.376.024a1.4 1.4 0 0 0-.645.255 1.6 1.6 0 0 0-.683.989c-.038.276-.043.527.017.754.216.694.663 1.111 1.424 1.226.318.014.685-.031.995-.225.635-.391 1.04-1.585 1.206-2.371.027-.088.018-.178-.006-.21-.003-.034-.022-.056-.095-.091-.199-.096-.66-.208-1.188-.3a4 4 0 0 0-.649-.05" style="fill:#1f2937;fill-rule:nonzero"/></svg>