<svg xmlns="http://www.w3.org/2000/svg" xml:space="preserve" style="fill-rule:evenodd;clip-rule:evenodd;stroke-linejoin:round;stroke-miterlimit:2" viewBox="0 0 512 512"><clipPath id="_clip1"><path d="M512 60v392c0 33.115-26.885 60-60 60H60c-33.115 0-60-26.885-60-60V60C0 26.885 26.885 0 60 0h392c33.115 0 60 26.885 60 60"/></clipPath><g clip-path="url(#_clip1)"><path d="M7 .766a3.02 3.02 0 0 0-2.98 2.583 3 3 0 0 0-.663-.074 3.024 3.024 0 0 0-3.01 3.01c0 1.106.61 2.127 1.584 2.651a3 3 0 0 0-.291 1.291 3.025 3.025 0 0 0 3.01 3.01c.914 0 1.779-.416 2.35-1.129a3.01 3.01 0 0 0 2.348 1.126 3.025 3.025 0 0 0 3.01-3.01c0-.445-.099-.885-.29-1.288a3.01 3.01 0 0 0 1.586-2.651 3.024 3.024 0 0 0-3.009-3.009h-.001q-.342 0-.663.073A3.02 3.02 0 0 0 7 .766" style="fill:#9b5de5" transform="translate(34 34)scale(31.7143)"/><path d="M7 9.346c1.28 0 2-.72 2-2s-.72-2-2-2-2 .72-2 2 .72 2 2 2" style="fill:#d9c2ff;fill-rule:nonzero" transform="translate(34 34)scale(31.7143)"/></g></svg>