<?xml version="1.0" encoding="UTF-8" standalone="no"?>
<!DOCTYPE svg PUBLIC "-//W3C//DTD SVG 1.1//EN" "http://www.w3.org/Graphics/SVG/1.1/DTD/svg11.dtd">
<svg width="100%" height="100%" viewBox="0 0 12 12" version="1.1" xmlns="http://www.w3.org/2000/svg" xmlns:xlink="http://www.w3.org/1999/xlink" xml:space="preserve" xmlns:serif="http://www.serif.com/" style="fill-rule:evenodd;clip-rule:evenodd;stroke-linejoin:round;stroke-miterlimit:2;">
    <g transform="matrix(0.5,0,0,0.5,0,0)">
        <path d="M4,20C3.45,20 2.979,19.804 2.588,19.413C2.197,19.022 2.001,18.551 2,18L2,6C2,5.45 2.196,4.979 2.588,4.588C2.98,4.197 3.451,4.001 4,4L20,4C20.55,4 21.021,4.196 21.413,4.588C21.805,4.98 22.001,5.451 22,6L22,18C22,18.55 21.804,19.021 21.413,19.413C21.022,19.805 20.551,20.001 20,20L4,20ZM12,12.825C12.083,12.825 12.171,12.812 12.263,12.787C12.355,12.762 12.442,12.724 12.525,12.675L19.6,8.25C19.733,8.167 19.833,8.063 19.9,7.938C19.967,7.813 20,7.676 20,7.525C20,7.192 19.858,6.942 19.575,6.775C19.292,6.608 19,6.617 18.7,6.8L12,11L5.3,6.8C5,6.617 4.708,6.613 4.425,6.788C4.142,6.963 4,7.209 4,7.525C4,7.692 4.033,7.838 4.1,7.963C4.167,8.088 4.267,8.184 4.4,8.25L11.475,12.675C11.558,12.725 11.646,12.763 11.738,12.788C11.83,12.813 11.917,12.826 12,12.825" style="fill:rgb(155,93,229);fill-rule:nonzero;"/>
    </g>
</svg>
