<?xml version="1.0" encoding="UTF-8" standalone="no"?>
<!DOCTYPE svg PUBLIC "-//W3C//DTD SVG 1.1//EN" "http://www.w3.org/Graphics/SVG/1.1/DTD/svg11.dtd">
<svg width="100%" height="100%" viewBox="0 0 12 12" version="1.1" xmlns="http://www.w3.org/2000/svg" xmlns:xlink="http://www.w3.org/1999/xlink" xml:space="preserve" xmlns:serif="http://www.serif.com/" style="fill-rule:evenodd;clip-rule:evenodd;stroke-linejoin:round;stroke-miterlimit:2;">
    <path d="M4.25,8.25L7.75,8.25L7.75,3.75L4.25,3.75L4.25,8.25ZM4.75,7.75L4.75,4.25L7.25,4.25L7.25,7.75L4.75,7.75ZM5.596,5.904L6.404,5.904L6.404,5.096L5.596,5.096L5.596,5.904ZM2.808,10C2.578,10 2.386,9.923 2.231,9.769C2.077,9.615 2,9.423 2,9.192L2,2.808C2,2.578 2.077,2.386 2.232,2.231C2.386,2.077 2.578,2 2.808,2L9.192,2C9.423,2 9.615,2.077 9.769,2.232C9.923,2.386 10,2.578 10,2.808L10,9.192C10,9.423 9.923,9.615 9.769,9.769C9.615,9.923 9.423,10 9.192,10L2.808,10ZM2.808,9.5L9.192,9.5C9.269,9.5 9.34,9.468 9.404,9.404C9.468,9.34 9.5,9.269 9.5,9.192L9.5,2.808C9.5,2.731 9.468,2.66 9.404,2.596C9.34,2.532 9.269,2.5 9.192,2.5L2.808,2.5C2.731,2.5 2.66,2.532 2.596,2.596C2.532,2.66 2.5,2.731 2.5,2.808L2.5,9.192C2.5,9.269 2.532,9.34 2.596,9.404C2.66,9.468 2.731,9.5 2.808,9.5M2.5,2.5L2.5,9.5L2.5,2.5Z" style="fill:rgb(217,194,255);fill-rule:nonzero;"/>
</svg>
